<svg xmlns="http://www.w3.org/2000/svg" viewBox="0 0 960 214" width="960" height="214" font-family="ui-sans-serif, system-ui, -apple-system, 'Segoe UI', Roboto, sans-serif" role="img" aria-label="BreachLens across the CI/CD pipeline: IDE, Commit and PR, Build, Test, Deploy and Run, all feeding one correlation engine.">
<rect x="0" y="20" width="160" height="64" rx="10" fill="#EFF6FF" stroke="#93C5FD" stroke-width="1.4"/>
<text x="80" y="47" text-anchor="middle" font-size="18" font-weight="700" fill="#1D4ED8">IDE</text>
<text x="80" y="70" text-anchor="middle" font-size="12" font-family="ui-monospace, SFMono-Regular, Menlo, monospace" fill="#475569">shift-left</text>
<line x1="80" y1="86" x2="80" y2="98" stroke="#94A3B8" stroke-width="1.4"/>
<path d="M76 95 L80 99 L84 95" fill="none" stroke="#94A3B8" stroke-width="1.4" stroke-linecap="round" stroke-linejoin="round"/>
<text x="80" y="119" text-anchor="middle" font-size="12" fill="#64748B">Inline findings</text>
<text x="80" y="135" text-anchor="middle" font-size="12" fill="#64748B">before you push</text>
<line x1="160" y1="52" x2="194" y2="52" stroke="#94A3B8" stroke-width="1.6"/>
<polygon points="194,47 201,52 194,57" fill="#94A3B8"/>
<rect x="200" y="20" width="160" height="64" rx="10" fill="#EFF6FF" stroke="#93C5FD" stroke-width="1.4"/>
<text x="280" y="47" text-anchor="middle" font-size="18" font-weight="700" fill="#1D4ED8">COMMIT &#183; PR</text>
<text x="280" y="70" text-anchor="middle" font-size="12" font-family="ui-monospace, SFMono-Regular, Menlo, monospace" fill="#475569">SAST &#183; secrets</text>
<line x1="280" y1="86" x2="280" y2="98" stroke="#94A3B8" stroke-width="1.4"/>
<path d="M276 95 L280 99 L284 95" fill="none" stroke="#94A3B8" stroke-width="1.4" stroke-linecap="round" stroke-linejoin="round"/>
<text x="280" y="119" text-anchor="middle" font-size="12" fill="#64748B">PR checks +</text>
<text x="280" y="135" text-anchor="middle" font-size="12" fill="#64748B">auto-fix PRs</text>
<line x1="360" y1="52" x2="394" y2="52" stroke="#94A3B8" stroke-width="1.6"/>
<polygon points="394,47 401,52 394,57" fill="#94A3B8"/>
<rect x="400" y="20" width="160" height="64" rx="10" fill="#EFF6FF" stroke="#93C5FD" stroke-width="1.4"/>
<text x="480" y="47" text-anchor="middle" font-size="18" font-weight="700" fill="#1D4ED8">BUILD</text>
<text x="480" y="70" text-anchor="middle" font-size="12" font-family="ui-monospace, SFMono-Regular, Menlo, monospace" fill="#475569">SCA &#183; IaC &#183; SBOM</text>
<line x1="480" y1="86" x2="480" y2="98" stroke="#94A3B8" stroke-width="1.4"/>
<path d="M476 95 L480 99 L484 95" fill="none" stroke="#94A3B8" stroke-width="1.4" stroke-linecap="round" stroke-linejoin="round"/>
<text x="480" y="119" text-anchor="middle" font-size="12" fill="#64748B">Dependency +</text>
<text x="480" y="135" text-anchor="middle" font-size="12" fill="#64748B">supply-chain</text>
<line x1="560" y1="52" x2="594" y2="52" stroke="#94A3B8" stroke-width="1.6"/>
<polygon points="594,47 601,52 594,57" fill="#94A3B8"/>
<rect x="600" y="20" width="160" height="64" rx="10" fill="#EFF6FF" stroke="#93C5FD" stroke-width="1.4"/>
<text x="680" y="47" text-anchor="middle" font-size="18" font-weight="700" fill="#1D4ED8">TEST</text>
<text x="680" y="70" text-anchor="middle" font-size="12" font-family="ui-monospace, SFMono-Regular, Menlo, monospace" fill="#475569">DAST &#183; Pentest</text>
<line x1="680" y1="86" x2="680" y2="98" stroke="#94A3B8" stroke-width="1.4"/>
<path d="M676 95 L680 99 L684 95" fill="none" stroke="#94A3B8" stroke-width="1.4" stroke-linecap="round" stroke-linejoin="round"/>
<text x="680" y="119" text-anchor="middle" font-size="12" fill="#64748B">Outside-in +</text>
<text x="680" y="135" text-anchor="middle" font-size="12" fill="#64748B">Proof-of-Exploit</text>
<line x1="760" y1="52" x2="794" y2="52" stroke="#94A3B8" stroke-width="1.6"/>
<polygon points="794,47 801,52 794,57" fill="#94A3B8"/>
<rect x="800" y="20" width="160" height="64" rx="10" fill="#EFF6FF" stroke="#93C5FD" stroke-width="1.4"/>
<text x="880" y="47" text-anchor="middle" font-size="18" font-weight="700" fill="#1D4ED8">DEPLOY &#183; RUN</text>
<text x="880" y="70" text-anchor="middle" font-size="12" font-family="ui-monospace, SFMono-Regular, Menlo, monospace" fill="#475569">Runtime &#183; Posture</text>
<line x1="880" y1="86" x2="880" y2="98" stroke="#94A3B8" stroke-width="1.4"/>
<path d="M876 95 L880 99 L884 95" fill="none" stroke="#94A3B8" stroke-width="1.4" stroke-linecap="round" stroke-linejoin="round"/>
<text x="880" y="119" text-anchor="middle" font-size="12" fill="#64748B">Live detection +</text>
<text x="880" y="135" text-anchor="middle" font-size="12" fill="#64748B">attack-paths</text>
<rect x="0" y="160" width="960" height="46" rx="12" fill="#F5F8FF" stroke="#93C5FD" stroke-width="1.2" stroke-dasharray="6 4"/>
<text x="480" y="184" text-anchor="middle" font-size="14" font-weight="600" fill="#1E293B">One correlation engine &#8212; every stage feeds it</text>
<text x="480" y="200" text-anchor="middle" font-size="12" fill="#64748B">a commit finding chains to a test exploit and a deploy misconfig as one scored attack path</text>
</svg>
